<svg width="25" height="25" viewBox="0 0 25 25" fill="none" xmlns="http://www.w3.org/2000/svg">
<g id="vuesax/bold/notification">
<g id="notification">
<path id="Vector" d="M19.9718 14.6326L18.9718 12.9726C18.7618 12.6026 18.5718 11.9026 18.5718 11.4926V8.96258C18.5718 6.61258 17.1918 4.58258 15.2018 3.63258C14.6818 2.71258 13.7218 2.14258 12.6218 2.14258C11.5318 2.14258 10.5518 2.73258 10.0318 3.66258C8.08178 4.63258 6.73178 6.64258 6.73178 8.96258V11.4926C6.73178 11.9026 6.54178 12.6026 6.33178 12.9626L5.32178 14.6326C4.92178 15.3026 4.83178 16.0426 5.08178 16.7226C5.32178 17.3926 5.89178 17.9126 6.63178 18.1626C8.57178 18.8226 10.6118 19.1426 12.6518 19.1426C14.6918 19.1426 16.7318 18.8226 18.6718 18.1726C19.3718 17.9426 19.9118 17.4126 20.1718 16.7226C20.4318 16.0326 20.3618 15.2726 19.9718 14.6326Z" fill="#292D32"/>
<path id="Vector_2" d="M15.4619 20.1526C15.0419 21.3126 13.9319 22.1426 12.6319 22.1426C11.8419 22.1426 11.0619 21.8226 10.5119 21.2526C10.1919 20.9526 9.95189 20.5526 9.81189 20.1426C9.94189 20.1626 10.0719 20.1726 10.2119 20.1926C10.4419 20.2226 10.6819 20.2526 10.9219 20.2726C11.4919 20.3226 12.0719 20.3526 12.6519 20.3526C13.2219 20.3526 13.7919 20.3226 14.3519 20.2726C14.5619 20.2526 14.7719 20.2426 14.9719 20.2126C15.1319 20.1926 15.2919 20.1726 15.4619 20.1526Z" fill="#292D32"/>
</g>
</g>
</svg>
