<svg width="25" height="25" viewBox="0 0 25 25" fill="none" xmlns="http://www.w3.org/2000/svg">
<g id="vuesax/linear/call">
<g id="call">
<g id="call_2">
<path id="Vector" d="M22.6018 18.4726C22.6018 18.8326 22.5218 19.2026 22.3518 19.5626C22.1818 19.9226 21.9618 20.2626 21.6718 20.5826C21.1818 21.1226 20.6418 21.5126 20.0318 21.7626C19.4318 22.0126 18.7818 22.1426 18.0818 22.1426C17.0618 22.1426 15.9718 21.9026 14.8218 21.4126C13.6718 20.9226 12.5218 20.2626 11.3818 19.4326C10.2318 18.5926 9.14184 17.6626 8.10184 16.6326C7.07184 15.5926 6.14184 14.5026 5.31184 13.3626C4.49184 12.2226 3.83184 11.0826 3.35184 9.95258C2.87184 8.81258 2.63184 7.72258 2.63184 6.68258C2.63184 6.00258 2.75184 5.35258 2.99184 4.75258C3.23184 4.14258 3.61184 3.58258 4.14184 3.08258C4.78184 2.45258 5.48184 2.14258 6.22184 2.14258C6.50184 2.14258 6.78184 2.20258 7.03184 2.32258C7.29184 2.44258 7.52184 2.62258 7.70184 2.88258L10.0218 6.15258C10.2018 6.40258 10.3318 6.63258 10.4218 6.85258C10.5118 7.06258 10.5618 7.27258 10.5618 7.46258C10.5618 7.70258 10.4918 7.94258 10.3518 8.17258C10.2218 8.40258 10.0318 8.64258 9.79184 8.88258L9.03184 9.67258C8.92184 9.78258 8.87184 9.91258 8.87184 10.0726C8.87184 10.1526 8.88184 10.2226 8.90184 10.3026C8.93184 10.3826 8.96184 10.4426 8.98184 10.5026C9.16184 10.8326 9.47184 11.2626 9.91184 11.7826C10.3618 12.3026 10.8418 12.8326 11.3618 13.3626C11.9018 13.8926 12.4218 14.3826 12.9518 14.8326C13.4718 15.2726 13.9018 15.5726 14.2418 15.7526C14.2918 15.7726 14.3518 15.8026 14.4218 15.8326C14.5018 15.8626 14.5818 15.8726 14.6718 15.8726C14.8418 15.8726 14.9718 15.8126 15.0818 15.7026L15.8418 14.9526C16.0918 14.7026 16.3318 14.5126 16.5618 14.3926C16.7918 14.2526 17.0218 14.1826 17.2718 14.1826C17.4618 14.1826 17.6618 14.2226 17.8818 14.3126C18.1018 14.4026 18.3318 14.5326 18.5818 14.7026L21.8918 17.0526C22.1518 17.2326 22.3318 17.4426 22.4418 17.6926C22.5418 17.9426 22.6018 18.1926 22.6018 18.4726Z" stroke="#AAAAAA" stroke-width="1.5" stroke-miterlimit="10"/>
</g>
</g>
</g>
</svg>
