<svg width="25" height="25" viewBox="0 0 25 25" fill="none" xmlns="http://www.w3.org/2000/svg">
<g id="vuesax/bold/clock">
<g id="clock">
<path id="Vector" d="M12.6318 2.14258C7.12184 2.14258 2.63184 6.63258 2.63184 12.1426C2.63184 17.6526 7.12184 22.1426 12.6318 22.1426C18.1418 22.1426 22.6318 17.6526 22.6318 12.1426C22.6318 6.63258 18.1418 2.14258 12.6318 2.14258ZM16.9818 15.7126C16.8418 15.9526 16.5918 16.0826 16.3318 16.0826C16.2018 16.0826 16.0718 16.0526 15.9518 15.9726L12.8518 14.1226C12.0818 13.6626 11.5118 12.6526 11.5118 11.7626V7.66258C11.5118 7.25258 11.8518 6.91258 12.2618 6.91258C12.6718 6.91258 13.0118 7.25258 13.0118 7.66258V11.7626C13.0118 12.1226 13.3118 12.6526 13.6218 12.8326L16.7218 14.6826C17.0818 14.8926 17.2018 15.3526 16.9818 15.7126Z" fill="#494949"/>
</g>
</g>
</svg>
