<svg width="25" height="25" viewBox="0 0 25 25" fill="none" xmlns="http://www.w3.org/2000/svg">
<g id="vuesax/bold/information">
<g id="information">
<path id="Vector" d="M22.1918 10.8826L20.8418 9.30256C20.5918 9.00256 20.3818 8.44256 20.3818 8.04256V6.34256C20.3818 5.28256 19.5118 4.41256 18.4518 4.41256H16.7518C16.3518 4.41256 15.7818 4.20256 15.4818 3.95256L13.9018 2.60256C13.2118 2.01256 12.0818 2.01256 11.3918 2.60256L9.79184 3.95256C9.49184 4.20256 8.93184 4.41256 8.53184 4.41256H6.80184C5.74184 4.41256 4.87184 5.28256 4.87184 6.34256V8.04256C4.87184 8.43256 4.67184 8.99256 4.42184 9.29256L3.07184 10.8826C2.49184 11.5826 2.49184 12.7026 3.07184 13.3826L4.42184 14.9726C4.67184 15.2626 4.87184 15.8326 4.87184 16.2226V17.9326C4.87184 18.9926 5.74184 19.8626 6.80184 19.8626H8.54184C8.93184 19.8626 9.50184 20.0726 9.80184 20.3226L11.3818 21.6726C12.0718 22.2626 13.2018 22.2626 13.8918 21.6726L15.4718 20.3226C15.7718 20.0726 16.3318 19.8626 16.7318 19.8626H18.4318C19.4918 19.8626 20.3618 18.9926 20.3618 17.9326V16.2326C20.3618 15.8326 20.5718 15.2726 20.8218 14.9726L22.1718 13.3926C22.7818 12.7126 22.7818 11.5826 22.1918 10.8826ZM11.8818 8.27256C11.8818 7.86257 12.2218 7.52256 12.6318 7.52256C13.0418 7.52256 13.3818 7.86257 13.3818 8.27256V13.1026C13.3818 13.5126 13.0418 13.8526 12.6318 13.8526C12.2218 13.8526 11.8818 13.5126 11.8818 13.1026V8.27256ZM12.6318 17.0126C12.0818 17.0126 11.6318 16.5626 11.6318 16.0126C11.6318 15.4626 12.0718 15.0126 12.6318 15.0126C13.1818 15.0126 13.6318 15.4626 13.6318 16.0126C13.6318 16.5626 13.1918 17.0126 12.6318 17.0126Z" fill="#FA5454"/>
</g>
</g>
</svg>
