<svg width="25" height="25" viewBox="0 0 25 25" fill="none" xmlns="http://www.w3.org/2000/svg">
<g id="vuesax/bold/login">
<g id="login">
<path id="Vector" d="M17.4318 2.14258H14.8318C11.6318 2.14258 9.63184 4.14258 9.63184 7.34258V11.3926H14.0718L12.0018 9.32258C11.8518 9.17258 11.7818 8.98258 11.7818 8.79258C11.7818 8.60258 11.8518 8.41258 12.0018 8.26258C12.2918 7.97258 12.7718 7.97258 13.0618 8.26258L16.4118 11.6126C16.7018 11.9026 16.7018 12.3826 16.4118 12.6726L13.0618 16.0226C12.7718 16.3126 12.2918 16.3126 12.0018 16.0226C11.7118 15.7326 11.7118 15.2526 12.0018 14.9626L14.0718 12.8926H9.63184V16.9426C9.63184 20.1426 11.6318 22.1426 14.8318 22.1426H17.4218C20.6218 22.1426 22.6218 20.1426 22.6218 16.9426V7.34258C22.6318 4.14258 20.6318 2.14258 17.4318 2.14258Z" fill="#1E2F29"/>
<path id="Vector_2" d="M3.38184 11.3926C2.97184 11.3926 2.63184 11.7326 2.63184 12.1426C2.63184 12.5526 2.97184 12.8926 3.38184 12.8926H9.63184V11.3926H3.38184Z" fill="#1E2F29"/>
</g>
</g>
</svg>
