<svg width="35" height="15" viewBox="0 0 35 15" fill="none" xmlns="http://www.w3.org/2000/svg">
<path d="M0.631836 11.1426C0.631836 10.5903 1.07955 10.1426 1.63184 10.1426H3.63184C4.18412 10.1426 4.63184 10.5903 4.63184 11.1426V13.1426C4.63184 13.6949 4.18412 14.1426 3.63184 14.1426H1.63184C1.07955 14.1426 0.631836 13.6949 0.631836 13.1426V11.1426Z" fill="#72B238"/>
<path d="M6.63184 9.14258C6.63184 8.59029 7.07955 8.14258 7.63184 8.14258H9.63184C10.1841 8.14258 10.6318 8.59029 10.6318 9.14258V13.1426C10.6318 13.6949 10.1841 14.1426 9.63184 14.1426H7.63184C7.07955 14.1426 6.63184 13.6949 6.63184 13.1426V9.14258Z" fill="#AFD94B"/>
<path d="M12.6318 7.14258C12.6318 6.59029 13.0796 6.14258 13.6318 6.14258H15.6318C16.1841 6.14258 16.6318 6.59029 16.6318 7.14258V13.1426C16.6318 13.6949 16.1841 14.1426 15.6318 14.1426H13.6318C13.0796 14.1426 12.6318 13.6949 12.6318 13.1426V7.14258Z" fill="#494949"/>
<path d="M18.6318 5.14258C18.6318 4.59029 19.0796 4.14258 19.6318 4.14258H21.6318C22.1841 4.14258 22.6318 4.59029 22.6318 5.14258V13.1426C22.6318 13.6949 22.1841 14.1426 21.6318 14.1426H19.6318C19.0796 14.1426 18.6318 13.6949 18.6318 13.1426V5.14258Z" fill="#494949"/>
<path d="M24.6318 3.14258C24.6318 2.59029 25.0796 2.14258 25.6318 2.14258H27.6318C28.1841 2.14258 28.6318 2.59029 28.6318 3.14258V13.1426C28.6318 13.6949 28.1841 14.1426 27.6318 14.1426H25.6318C25.0796 14.1426 24.6318 13.6949 24.6318 13.1426V3.14258Z" fill="#494949"/>
<path d="M30.6318 1.14258C30.6318 0.590294 31.0796 0.142578 31.6318 0.142578H33.6318C34.1841 0.142578 34.6318 0.590293 34.6318 1.14258V13.1426C34.6318 13.6949 34.1841 14.1426 33.6318 14.1426H31.6318C31.0796 14.1426 30.6318 13.6949 30.6318 13.1426V1.14258Z" fill="#494949"/>
</svg>
