<svg width="25" height="25" viewBox="0 0 25 25" fill="none" xmlns="http://www.w3.org/2000/svg">
<g id="vuesax/bold/row-horizontal">
<g id="row-horizontal">
<path id="Vector" d="M14.1318 4.24258V20.0426C14.1318 21.5426 14.7718 22.1426 16.3618 22.1426H20.4018C21.9918 22.1426 22.6318 21.5426 22.6318 20.0426V4.24258C22.6318 2.74258 21.9918 2.14258 20.4018 2.14258H16.3618C14.7718 2.14258 14.1318 2.74258 14.1318 4.24258Z" fill="#D9D9D9"/>
<path id="Vector_2" d="M2.63184 4.24258V20.0426C2.63184 21.5426 3.27184 22.1426 4.86184 22.1426H8.90184C10.4918 22.1426 11.1318 21.5426 11.1318 20.0426V4.24258C11.1318 2.74258 10.4918 2.14258 8.90184 2.14258H4.86184C3.27184 2.14258 2.63184 2.74258 2.63184 4.24258Z" fill="#D9D9D9"/>
</g>
</g>
</svg>
