<svg width="21" height="21" viewBox="0 0 21 21" fill="none" xmlns="http://www.w3.org/2000/svg">
<g id="vuesax/linear/share">
<g id="share">
<path id="Vector" d="M14.7651 5.28424C16.4318 6.44257 17.5818 8.28424 17.8151 10.4092" stroke="#AAAAAA" stroke-width="1.5" stroke-linecap="round" stroke-linejoin="round"/>
<path id="Vector_2" d="M3.54004 10.4509C3.75671 8.33426 4.89004 6.49259 6.54004 5.32593" stroke="#AAAAAA" stroke-width="1.5" stroke-linecap="round" stroke-linejoin="round"/>
<path id="Vector_3" d="M7.45679 17.5926C8.42345 18.0843 9.52345 18.3593 10.6818 18.3593C11.7985 18.3593 12.8485 18.1093 13.7901 17.6509" stroke="#AAAAAA" stroke-width="1.5" stroke-linecap="round" stroke-linejoin="round"/>
<path id="Vector_4" d="M10.6819 6.55924C11.9614 6.55924 12.9986 5.52203 12.9986 4.24257C12.9986 2.96311 11.9614 1.9259 10.6819 1.9259C9.40244 1.9259 8.36523 2.96311 8.36523 4.24257C8.36523 5.52203 9.40244 6.55924 10.6819 6.55924Z" stroke="#AAAAAA" stroke-width="1.5" stroke-linecap="round" stroke-linejoin="round"/>
<path id="Vector_5" d="M4.657 16.7426C5.93646 16.7426 6.97367 15.7054 6.97367 14.4259C6.97367 13.1465 5.93646 12.1093 4.657 12.1093C3.37754 12.1093 2.34033 13.1465 2.34033 14.4259C2.34033 15.7054 3.37754 16.7426 4.657 16.7426Z" stroke="#AAAAAA" stroke-width="1.5" stroke-linecap="round" stroke-linejoin="round"/>
<path id="Vector_6" d="M16.6067 16.7426C17.8862 16.7426 18.9234 15.7054 18.9234 14.4259C18.9234 13.1465 17.8862 12.1093 16.6067 12.1093C15.3272 12.1093 14.29 13.1465 14.29 14.4259C14.29 15.7054 15.3272 16.7426 16.6067 16.7426Z" stroke="#AAAAAA" stroke-width="1.5" stroke-linecap="round" stroke-linejoin="round"/>
</g>
</g>
</svg>
