<svg width="25" height="25" viewBox="0 0 25 25" fill="none" xmlns="http://www.w3.org/2000/svg">
<g id="vuesax/bold/share">
<g id="share">
<path id="Vector" d="M20.9919 12.8726C20.6219 12.8726 20.3119 12.5926 20.2719 12.2226C20.0319 10.0226 18.8519 8.04257 17.0319 6.78257C16.7019 6.55257 16.6219 6.10257 16.8519 5.77257C17.0819 5.44257 17.5319 5.36257 17.8619 5.59257C20.0319 7.10257 21.4319 9.46257 21.7219 12.0726C21.7619 12.4726 21.4719 12.8326 21.0719 12.8726C21.0419 12.8726 21.0219 12.8726 20.9919 12.8726Z" fill="#494949"/>
<path id="Vector_2" d="M4.37188 12.9226C4.35188 12.9226 4.32188 12.9226 4.30188 12.9226C3.90188 12.8826 3.61188 12.5226 3.65188 12.1226C3.92188 9.51258 5.30188 7.15258 7.45188 5.63258C7.77188 5.40258 8.23188 5.48258 8.46188 5.80258C8.69188 6.13258 8.61188 6.58258 8.29188 6.81258C6.49188 8.09258 5.32188 10.0726 5.10188 12.2626C5.06188 12.6426 4.74188 12.9226 4.37188 12.9226Z" fill="#494949"/>
<path id="Vector_3" d="M16.6219 21.2426C15.3919 21.8326 14.0719 22.1326 12.6919 22.1326C11.2519 22.1326 9.88194 21.8126 8.60194 21.1626C8.24194 20.9926 8.10194 20.5526 8.28194 20.1926C8.45194 19.8326 8.89194 19.6926 9.25194 19.8626C9.88194 20.1826 10.5519 20.4026 11.2319 20.5326C12.1519 20.7126 13.0919 20.7226 14.0119 20.5626C14.6919 20.4426 15.3619 20.2326 15.9819 19.9326C16.3519 19.7626 16.7919 19.9026 16.9519 20.2726C17.1319 20.6326 16.9919 21.0726 16.6219 21.2426Z" fill="#494949"/>
<path id="Vector_4" d="M12.6818 2.15257C11.1318 2.15257 9.86182 3.41257 9.86182 4.97257C9.86182 6.53257 11.1218 7.79257 12.6818 7.79257C14.2418 7.79257 15.5018 6.53257 15.5018 4.97257C15.5018 3.41257 14.2418 2.15257 12.6818 2.15257Z" fill="#494949"/>
<path id="Vector_5" d="M5.68182 14.0126C4.13182 14.0126 2.86182 15.2726 2.86182 16.8326C2.86182 18.3926 4.12182 19.6526 5.68182 19.6526C7.24182 19.6526 8.50182 18.3926 8.50182 16.8326C8.50182 15.2726 7.23182 14.0126 5.68182 14.0126Z" fill="#494949"/>
<path id="Vector_6" d="M19.5817 14.0126C18.0317 14.0126 16.7617 15.2726 16.7617 16.8326C16.7617 18.3926 18.0217 19.6526 19.5817 19.6526C21.1417 19.6526 22.4017 18.3926 22.4017 16.8326C22.4017 15.2726 21.1417 14.0126 19.5817 14.0126Z" fill="#494949"/>
</g>
</g>
</svg>
