<svg width="25" height="25" viewBox="0 0 25 25" fill="none" xmlns="http://www.w3.org/2000/svg">
<g id="vuesax/bold/verify">
<g id="verify">
<path id="Vector" d="M22.1918 10.8826L20.8318 9.30258C20.5718 9.00258 20.3618 8.44258 20.3618 8.04258V6.34258C20.3618 5.28258 19.4918 4.41258 18.4318 4.41258H16.7318C16.3418 4.41258 15.7718 4.20258 15.4718 3.94258L13.8918 2.58258C13.2018 1.99258 12.0718 1.99258 11.3718 2.58258L9.80184 3.95258C9.50184 4.20258 8.93184 4.41258 8.54184 4.41258H6.81184C5.75184 4.41258 4.88184 5.28258 4.88184 6.34258V8.05258C4.88184 8.44258 4.67184 9.00258 4.42184 9.30258L3.07184 10.8926C2.49184 11.5826 2.49184 12.7026 3.07184 13.3926L4.42184 14.9826C4.67184 15.2826 4.88184 15.8426 4.88184 16.2326V17.9426C4.88184 19.0026 5.75184 19.8726 6.81184 19.8726H8.54184C8.93184 19.8726 9.50184 20.0826 9.80184 20.3426L11.3818 21.7026C12.0718 22.2926 13.2018 22.2926 13.9018 21.7026L15.4818 20.3426C15.7818 20.0826 16.3418 19.8726 16.7418 19.8726H18.4418C19.5018 19.8726 20.3718 19.0026 20.3718 17.9426V16.2426C20.3718 15.8526 20.5818 15.2826 20.8418 14.9826L22.2018 13.4026C22.7818 12.7126 22.7818 11.5726 22.1918 10.8826ZM16.7918 10.2526L11.9618 15.0826C11.8218 15.2226 11.6318 15.3026 11.4318 15.3026C11.2318 15.3026 11.0418 15.2226 10.9018 15.0826L8.48184 12.6626C8.19184 12.3726 8.19184 11.8926 8.48184 11.6026C8.77184 11.3126 9.25184 11.3126 9.54184 11.6026L11.4318 13.4926L15.7318 9.19258C16.0218 8.90258 16.5018 8.90258 16.7918 9.19258C17.0818 9.48258 17.0818 9.96257 16.7918 10.2526Z" fill="#0CA678"/>
</g>
</g>
</svg>
